<?xml version="1.0" encoding="utf-8"?>
<!-- Generator: Adobe Illustrator 24.1.0, SVG Export Plug-In . SVG Version: 6.00 Build 0)  -->
<svg version="1.1" id="Capa_1" xmlns="http://www.w3.org/2000/svg" xmlns:xlink="http://www.w3.org/1999/xlink" x="0px" y="0px"
	 viewBox="0 0 538.6 115.5" style="enable-background:new 0 0 538.6 115.5;" xml:space="preserve">
<style type="text/css">
	.st0{fill:#1E1E1E;stroke:#282828;stroke-miterlimit:10;}
	.st1{fill:#1E1E1E;}
	.st2{fill:#0180C7;}
	.st3{fill-rule:evenodd;clip-rule:evenodd;fill:#FFFFFF;}
</style>
<g>
	<path class="st0" d="M139.7,53.4c0,2.8-0.2,5.1-0.5,6.8c-0.3,1.7-0.9,3.1-1.6,4c-0.8,0.9-1.9,1.6-3.2,1.9c-1.4,0.3-3.1,0.5-5.2,0.5
		h-6.9v-3.7h6.2c0.9,0,1.7-0.1,2.3-0.3c0.6-0.2,1.1-0.7,1.5-1.4c0.4-0.7,0.6-1.7,0.8-2.9c0.1-1.2,0.2-2.9,0.2-4.9
		c0-2-0.1-3.6-0.2-4.9c-0.1-1.3-0.4-2.3-0.8-3c-0.4-0.7-0.9-1.2-1.5-1.4c-0.6-0.3-1.4-0.4-2.3-0.4h-8.8v40.7h-6.7V39.8h16.2
		c2.1,0,3.9,0.2,5.2,0.5c1.4,0.4,2.5,1,3.2,2c0.8,1,1.3,2.4,1.6,4.2C139.5,48.3,139.7,50.6,139.7,53.4z"/>
	<path class="st0" d="M150.2,84.3h-6.5V38.6h6.5V84.3z"/>
	<path class="st0" d="M170.1,63.2v3.7h-2.7c-1.1,0-2.1,0.1-2.8,0.3c-0.7,0.2-1.2,0.4-1.6,0.8c-0.4,0.4-0.6,0.8-0.8,1.4
		c-0.1,0.6-0.2,1.3-0.2,2.2v4.1c0,1,0.1,1.8,0.2,2.4c0.1,0.6,0.4,1.1,0.8,1.5c0.4,0.4,0.9,0.6,1.6,0.8c0.7,0.1,1.6,0.2,2.8,0.2h7.2
		V59.6c0-1.4-0.1-2.5-0.2-3.4c-0.1-0.9-0.4-1.6-0.8-2.1c-0.4-0.5-0.9-0.8-1.6-1c-0.7-0.2-1.6-0.3-2.8-0.3H160v-3.8h11.4
		c1.9,0,3.5,0.2,4.7,0.6c1.2,0.4,2.2,1,3,1.9c0.7,0.9,1.2,2,1.5,3.4c0.3,1.4,0.4,3,0.4,5v24.4h-15.9c-1.9,0-3.5-0.2-4.7-0.5
		c-1.2-0.4-2.2-0.9-3-1.6c-0.7-0.7-1.2-1.6-1.5-2.6c-0.3-1-0.4-2.2-0.4-3.6v-4.5c0-1.4,0.1-2.5,0.4-3.6c0.3-1,0.8-1.9,1.5-2.6
		c0.7-0.7,1.7-1.2,3-1.6c1.2-0.4,2.8-0.5,4.7-0.5H170.1z"/>
	<path class="st0" d="M190.5,98.3l3.9-13.2l-11.2-36h6.7l7.6,28.6l8-28.6h6.1l-14.8,49.2H190.5z"/>
	<path class="st0" d="M239.4,70.9c0,4.6-0.8,8-2.3,10.2c-1.6,2.2-4.2,3.2-8,3.2h-14.2v-3.8h12.9c0.9,0,1.7-0.1,2.4-0.3
		c0.7-0.2,1.3-0.6,1.7-1.3c0.4-0.6,0.8-1.5,1-2.6c0.2-1.1,0.3-2.6,0.3-4.4c0-1.6-0.1-2.8-0.3-3.8c-0.2-1-0.5-1.8-0.9-2.3
		c-0.4-0.5-1.1-0.9-1.8-1.1c-0.8-0.2-1.8-0.3-3.1-0.3h-4.8c-1.6,0-3-0.2-4.1-0.6c-1.1-0.4-2-1.1-2.7-2.1c-0.7-1-1.2-2.2-1.5-3.7
		c-0.3-1.5-0.4-3.5-0.4-5.7c0-3.9,0.7-6.9,2.2-9.1c1.5-2.2,4-3.3,7.6-3.3h12.4v3.8H225c-0.9,0-1.6,0.1-2.3,0.3
		c-0.6,0.2-1.2,0.6-1.6,1.2s-0.8,1.4-1,2.3c-0.2,1-0.3,2.3-0.3,3.8c0,1.5,0.1,2.7,0.2,3.6c0.1,1,0.4,1.7,0.7,2.2
		c0.4,0.5,0.9,0.9,1.6,1.1c0.7,0.2,1.6,0.3,2.7,0.3h4.5c1.7,0,3.2,0.2,4.4,0.5c1.2,0.3,2.3,1,3.1,1.8c0.8,0.9,1.4,2.1,1.8,3.7
		C239.2,66.3,239.4,68.4,239.4,70.9z"/>
	<path class="st0" d="M259.3,52.9h-8.8v22.5c0,2,0.3,3.4,0.9,4.1s1.7,1,3.3,1h2.9v3.8h-5.5c-1.5,0-2.8-0.2-3.8-0.6
		c-1-0.4-1.9-1-2.5-1.8c-0.6-0.8-1.1-1.7-1.3-2.7c-0.3-1-0.4-2.2-0.4-3.4v-36h6.5v9.3h8.8V52.9z"/>
	<path class="st0" d="M275.7,63.2v3.7H273c-1.1,0-2.1,0.1-2.8,0.3c-0.7,0.2-1.2,0.4-1.6,0.8c-0.4,0.4-0.6,0.8-0.8,1.4
		c-0.1,0.6-0.2,1.3-0.2,2.2v4.1c0,1,0.1,1.8,0.2,2.4s0.4,1.1,0.8,1.5s0.9,0.6,1.6,0.8c0.7,0.1,1.6,0.2,2.8,0.2h7.2V59.6
		c0-1.4-0.1-2.5-0.2-3.4c-0.1-0.9-0.4-1.6-0.8-2.1c-0.4-0.5-0.9-0.8-1.6-1c-0.7-0.2-1.6-0.3-2.8-0.3h-9.1v-3.8h11.4
		c1.9,0,3.5,0.2,4.7,0.6c1.2,0.4,2.2,1,3,1.9c0.7,0.9,1.2,2,1.5,3.4c0.3,1.4,0.4,3,0.4,5v24.4h-15.9c-1.9,0-3.5-0.2-4.7-0.5
		c-1.2-0.4-2.2-0.9-3-1.6s-1.2-1.6-1.5-2.6c-0.3-1-0.4-2.2-0.4-3.6v-4.5c0-1.4,0.1-2.5,0.4-3.6c0.3-1,0.8-1.9,1.5-2.6s1.7-1.2,3-1.6
		c1.2-0.4,2.8-0.5,4.7-0.5H275.7z"/>
	<path class="st0" d="M307.8,52.9H299v22.5c0,2,0.3,3.4,0.9,4.1s1.7,1,3.3,1h2.9v3.8h-5.5c-1.5,0-2.8-0.2-3.8-0.6
		c-1-0.4-1.9-1-2.5-1.8c-0.6-0.8-1.1-1.7-1.3-2.7c-0.3-1-0.4-2.2-0.4-3.4v-36h6.5v9.3h8.8V52.9z"/>
	<path class="st0" d="M318.3,44.6h-6.5v-6.1h6.5V44.6z M318.3,84.3h-6.5V49.1h6.5V84.3z"/>
	<path class="st0" d="M342.4,49.1c1.9,0,3.5,0.2,4.7,0.6c1.2,0.4,2.2,1,3,1.9c0.7,0.9,1.2,2,1.5,3.4c0.3,1.4,0.4,3,0.4,5v13.6
		c0,2-0.1,3.7-0.4,5c-0.3,1.4-0.8,2.5-1.5,3.3c-0.7,0.9-1.7,1.5-3,1.9c-1.2,0.4-2.8,0.6-4.7,0.6h-8.5c-1.9,0-3.5-0.2-4.7-0.6
		c-1.2-0.4-2.2-1-3-1.9c-0.7-0.9-1.2-2-1.5-3.3c-0.3-1.4-0.4-3-0.4-5V59.9c0-1.9,0.1-3.6,0.4-5c0.3-1.4,0.8-2.5,1.5-3.4
		c0.7-0.9,1.7-1.5,3-1.9c1.2-0.4,2.8-0.6,4.7-0.6H342.4z M330.7,73.8c0,1.4,0.1,2.5,0.2,3.4c0.1,0.9,0.4,1.6,0.8,2.1
		c0.4,0.5,0.9,0.8,1.6,1c0.7,0.2,1.6,0.3,2.8,0.3h3.9c1.1,0,2.1-0.1,2.8-0.3c0.7-0.2,1.2-0.5,1.6-1c0.4-0.5,0.6-1.2,0.8-2.1
		c0.1-0.9,0.2-2,0.2-3.4V59.6c0-1.4-0.1-2.5-0.2-3.4c-0.1-0.9-0.4-1.6-0.8-2.1c-0.4-0.5-0.9-0.8-1.6-1c-0.7-0.2-1.6-0.3-2.8-0.3
		h-3.9c-1.1,0-2.1,0.1-2.8,0.3c-0.7,0.2-1.2,0.5-1.6,1c-0.4,0.5-0.6,1.2-0.8,2.1c-0.1,0.9-0.2,2-0.2,3.4V73.8z"/>
	<path class="st0" d="M364.2,52.9v31.4h-6.5V49.1h17.4c1.9,0,3.5,0.2,4.7,0.6c1.2,0.4,2.2,1,3,1.9c0.7,0.9,1.2,2,1.5,3.4
		c0.3,1.4,0.4,3,0.4,5v24.4h-6.5V59.6c0-1.4-0.1-2.5-0.2-3.4c-0.1-0.9-0.4-1.6-0.8-2.1c-0.4-0.5-0.9-0.8-1.6-1
		c-0.7-0.2-1.6-0.3-2.8-0.3H364.2z"/>
	<path class="st1" d="M429.8,70.9c0,4.6-0.8,8-2.3,10.2s-4.2,3.2-8,3.2h-14.2v-3.8h12.9c0.9,0,1.7-0.1,2.4-0.3
		c0.7-0.2,1.3-0.6,1.7-1.3s0.8-1.5,1-2.6c0.2-1.1,0.3-2.6,0.3-4.4c0-1.6-0.1-2.8-0.3-3.8c-0.2-1-0.5-1.8-0.9-2.3
		c-0.4-0.5-1.1-0.9-1.8-1.1c-0.8-0.2-1.8-0.3-3.1-0.3h-4.8c-1.6,0-3-0.2-4.1-0.6c-1.1-0.4-2-1.1-2.7-2.1c-0.7-1-1.2-2.2-1.5-3.7
		c-0.3-1.5-0.4-3.5-0.4-5.7c0-3.9,0.7-6.9,2.2-9.1c1.5-2.2,4-3.3,7.6-3.3h12.4v3.8h-10.8c-0.9,0-1.7,0.1-2.3,0.3
		c-0.6,0.2-1.2,0.6-1.6,1.2c-0.4,0.6-0.8,1.4-1,2.3c-0.2,1-0.3,2.3-0.3,3.8c0,1.5,0.1,2.7,0.2,3.6c0.1,1,0.4,1.7,0.7,2.2
		c0.4,0.5,0.9,0.9,1.6,1.1c0.7,0.2,1.6,0.3,2.7,0.3h4.5c1.7,0,3.2,0.2,4.4,0.5c1.2,0.3,2.3,1,3.1,1.8s1.4,2.1,1.8,3.7
		C429.6,66.3,429.8,68.4,429.8,70.9z"/>
	<path class="st1" d="M449.7,52.9h-8.8v22.5c0,2,0.3,3.4,0.9,4.1s1.7,1,3.3,1h2.9v3.8h-5.5c-1.5,0-2.8-0.2-3.8-0.6
		c-1-0.4-1.9-1-2.5-1.8c-0.6-0.8-1.1-1.7-1.3-2.7c-0.3-1-0.4-2.2-0.4-3.4v-36h6.5v9.3h8.8V52.9z"/>
	<path class="st1" d="M470.6,49.1c1.9,0,3.5,0.2,4.7,0.6c1.2,0.4,2.2,1,3,1.9c0.7,0.9,1.2,2,1.5,3.4c0.3,1.4,0.4,3,0.4,5v13.6
		c0,2-0.1,3.7-0.4,5c-0.3,1.4-0.8,2.5-1.5,3.3c-0.7,0.9-1.7,1.5-3,1.9c-1.2,0.4-2.8,0.6-4.7,0.6h-8.5c-1.9,0-3.5-0.2-4.7-0.6
		c-1.2-0.4-2.2-1-3-1.9c-0.7-0.9-1.2-2-1.5-3.3c-0.3-1.4-0.4-3-0.4-5V59.9c0-1.9,0.1-3.6,0.4-5c0.3-1.4,0.8-2.5,1.5-3.4
		c0.7-0.9,1.7-1.5,3-1.9c1.2-0.4,2.8-0.6,4.7-0.6H470.6z M459,73.8c0,1.4,0.1,2.5,0.2,3.4c0.1,0.9,0.4,1.6,0.8,2.1
		c0.4,0.5,0.9,0.8,1.6,1c0.7,0.2,1.6,0.3,2.8,0.3h3.9c1.1,0,2.1-0.1,2.8-0.3c0.7-0.2,1.2-0.5,1.6-1c0.4-0.5,0.6-1.2,0.8-2.1
		c0.1-0.9,0.2-2,0.2-3.4V59.6c0-1.4-0.1-2.5-0.2-3.4c-0.1-0.9-0.4-1.6-0.8-2.1c-0.4-0.5-0.9-0.8-1.6-1c-0.7-0.2-1.6-0.3-2.8-0.3
		h-3.9c-1.1,0-2.1,0.1-2.8,0.3c-0.7,0.2-1.2,0.5-1.6,1c-0.4,0.5-0.6,1.2-0.8,2.1c-0.1,0.9-0.2,2-0.2,3.4V73.8z"/>
	<path class="st1" d="M486.2,54.9c0.3-1.4,0.8-2.5,1.5-3.4c0.7-0.9,1.7-1.5,3-1.9c1.2-0.4,2.8-0.6,4.7-0.6h6.6v3.8h-4.3
		c-1.1,0-2.1,0.1-2.8,0.3c-0.7,0.2-1.2,0.5-1.6,1c-0.4,0.5-0.6,1.2-0.8,2.1c-0.1,0.9-0.2,2-0.2,3.4v24.7h-6.5V59.9
		C485.8,57.9,485.9,56.3,486.2,54.9z"/>
	<path class="st1" d="M515.6,69.6v-3.7h3.6c1.1,0,2.1-0.1,2.8-0.3c0.7-0.2,1.2-0.4,1.6-0.8c0.4-0.4,0.6-0.8,0.8-1.4
		c0.1-0.6,0.2-1.3,0.2-2.2v-3.4c0-0.9-0.1-1.7-0.2-2.3c-0.1-0.6-0.4-1.1-0.8-1.5c-0.4-0.4-0.9-0.6-1.6-0.8c-0.7-0.1-1.6-0.2-2.8-0.2
		h-2.7c-1.1,0-2.1,0.1-2.8,0.3c-0.7,0.2-1.2,0.5-1.6,1c-0.4,0.5-0.6,1.2-0.8,2.1c-0.1,0.9-0.2,2-0.2,3.4v14.2c0,1.4,0.1,2.5,0.2,3.4
		c0.1,0.9,0.4,1.6,0.8,2.1c0.4,0.5,0.9,0.8,1.6,1c0.7,0.2,1.6,0.3,2.8,0.3h12v3.8h-14.3c-1.9,0-3.5-0.2-4.7-0.6
		c-1.2-0.4-2.2-1-3-1.9c-0.7-0.9-1.2-2-1.5-3.3c-0.3-1.4-0.4-3-0.4-5V59.9c0-1.9,0.1-3.6,0.4-5c0.3-1.4,0.8-2.5,1.5-3.4
		c0.7-0.9,1.7-1.5,3-1.9c1.2-0.4,2.8-0.6,4.7-0.6h7.2c1.9,0,3.5,0.2,4.7,0.5c1.2,0.4,2.2,0.9,3,1.6c0.7,0.7,1.2,1.6,1.5,2.6
		c0.3,1,0.4,2.2,0.4,3.6v3.9c0,1.4-0.1,2.5-0.4,3.6c-0.3,1-0.8,1.9-1.5,2.6c-0.7,0.7-1.7,1.2-3,1.6c-1.2,0.4-2.8,0.5-4.7,0.5H515.6z
		"/>
</g>
<path class="st2" d="M34.9,9.4c1.4-3.1,3.2-5.9,7.7-5.3c-3.7,7.1-5.3,14.5-5.6,22.1c1.2,0,2.3,0,3.5,0c0.6-6.8,1.4-13.5,5.2-20
	c5,6.1,6.7,13,8.2,20c0.1,0.1,0.2,0.2,0.3,0.3c1.1-0.1,2.2-0.2,3.3-0.3l0,0c-1.2-8-3.7-15.5-8.7-22.3c3.8-1.7,6,0.4,7.8,3.1
	c4,5.8,5.3,12.5,6.5,19.2l0.1,0.3l0,0l0,0c1.1-0.1,2.2-0.2,3.4-0.3l0,0l0,0C65.7,19,63.9,12,60.1,5.7c-3.4-5.6-7.1-6.9-13.3-5
	C46,0.9,45.4,1.1,44.5,1c-6.8-1.1-9.9,0.5-12.7,6.8c-2.6,5.9-3.2,12.1-3.5,18.4l0,0c1.2,0,2.4,0,3.6,0C32.2,20.5,32.6,14.8,34.9,9.4
	z"/>
<path class="st2" d="M62.7,26.3c0.2,0.2,0.4,0.4,0.6,0.5c0-0.1,0-0.1-0.1-0.2l0,0l-0.1-0.3C62.9,26.3,62.8,26.3,62.7,26.3L62.7,26.3
	z"/>
<polygon class="st2" points="90.8,27.3 74.8,26.3 4.5,26.3 0.4,104.1 74.8,115.5 94.4,102.6 "/>
<path id="path-1" class="st3" d="M71.3,80.7c-1.2,1.5-4.1,2.6-4.1,2.6L45.5,91v-5.7l15.9-5.7c1.8-0.6,2.1-1.6,0.6-2
	c-1.5-0.5-4.1-0.3-5.9,0.3l-10.6,3.7v-5.9l0.6-0.2c0,0,3.1-1.1,7.4-1.6s9.6,0.1,13.7,1.6C71.9,77,72.4,79.2,71.3,80.7z M47.6,71
	V56.3c0-1.7-0.3-3.3-1.9-3.8c-1.2-0.4-2,0.8-2,2.5v36.7l-9.9-3.1V44.8c4.2,0.8,10.3,2.6,13.6,3.7C55.8,51.4,58.6,55,58.6,63
	C58.6,71,53.8,73.9,47.6,71z M15.6,84.7c-4.8-1.3-5.6-4.2-3.4-5.8c2-1.5,5.5-2.6,5.5-2.6l14.2-5V77l-10.2,3.7
	c-1.8,0.6-2.1,1.6-0.6,2c1.5,0.5,4.1,0.3,5.9-0.3l4.9-1.8v5.1c-0.3,0.1-0.7,0.1-1,0.2C26,86.7,20.7,86.4,15.6,84.7L15.6,84.7z"/>
</svg>
