<?xml version="1.0" encoding="utf-8"?>
<!-- Generator: Adobe Illustrator 24.1.0, SVG Export Plug-In . SVG Version: 6.00 Build 0)  -->
<svg version="1.1" id="Capa_1" xmlns="http://www.w3.org/2000/svg" xmlns:xlink="http://www.w3.org/1999/xlink" x="0px" y="0px"
	 viewBox="0 0 75 13.2" style="enable-background:new 0 0 75 13.2;" xml:space="preserve">
<style type="text/css">
	.st0{fill:#FFFFFF;}
</style>
<path class="st0" d="M26.7,13.2c-2.7,0-5.2-0.8-6.9-2.3c-1.3-1.1-1.9-2.7-1.9-4.3s0.6-3.1,1.9-4.3C21.4,0.9,24.1,0,26.7,0
	c2.9,0,5.2,0.7,6.9,2.3c1.3,1.1,1.9,2.7,1.9,4.3c0,2-0.6,3.2-1.9,4.3C32,12.4,29.4,13.2,26.7,13.2v-1.7c1.4,0,2.8-0.5,3.7-1.4
	c0.9-0.9,1.4-2.1,1.4-3.4s-0.5-2.6-1.4-3.5s-2.3-1.4-3.7-1.4c-1.4,0-2.8,0.5-3.7,1.4c-0.9,0.9-1.4,2.1-1.4,3.5
	c0,1.3,0.5,2.6,1.4,3.4c0.9,0.9,2.3,1.4,3.7,1.4V13.2L26.7,13.2z M6.9,0C5.4,0,3.8,0.3,2.4,0.9C1.1,1.5,0,2.4,0,4
	c0,1.4,0.9,2.2,0.9,2.2c0.4,0.3,1,0.9,2.6,1.3C4.1,7.6,5.7,7.8,7.2,8s3,0.3,3.6,0.5C11.2,8.6,12,8.7,12,9.6c0,0.9-0.8,1.2-1,1.2
	c-0.1,0.1-1.2,0.5-3,0.5c-1.3,0-3-0.4-3.6-0.6C3.7,10.5,3,10.1,2.3,9.3C2.3,9.2,2,8.6,2,8.1H0.4v4.6h1.8v-0.6c0-0.1,0.1-0.4,0.4-0.2
	C3,12,4.1,12.5,5.3,12.7c1,0.2,1.6,0.3,2.8,0.3c2,0,3-0.3,3.7-0.5s1.5-0.5,2.2-1.1c0.4-0.3,1.2-1.1,1.2-2.4s-0.7-2.1-1-2.4
	C13.9,6.3,13.5,6,13,5.8c-0.4-0.2-1-0.4-1.5-0.5c-0.9-0.2-3.1-0.5-4.1-0.6c-1-0.1-2.8-0.3-3.6-0.5C3.6,4.1,3.1,3.9,3.1,3.4
	c0-0.4,0.2-0.7,0.6-1c0.7-0.4,2-0.7,3.4-0.7c1.6,0,3,0.4,3.9,0.8c0.3,0.1,0.7,0.3,0.9,0.6c0.3,0.3,0.8,0.8,0.9,1.5h1.5v-4h-1.7v0.5
	c0,0.2-0.2,0.3-0.5,0.2C11.5,0.8,9.4,0,6.9,0 M43.1,0.1l8.1,8l-0.1-5.4c0-0.7-0.1-1-0.8-1h-1.5V0.1h6.9v1.6h-1.5
	c-0.7,0-0.8,0.3-0.8,1l0.1,10.5h-2.4l-9.3-9.3v6.7c0,0.7,0,1,0.7,1h1.7v1.6h-6.8v-1.6H39c0.6,0,0.6-0.6,0.6-1.1V2.8
	c0-0.5-0.1-1.1-1-1.1h-1.3V0.1H43.1z M63.5,11.7c0.1,0,0.4,0,0.4,0c0.1,0,0.3-0.2,0.3-0.3s0-0.3,0-0.4V8.4c0-0.1,0-0.3-0.1-0.4
	c-0.1-0.1-4.2-5.3-4.4-5.5c-0.2-0.3-0.6-0.7-1.3-0.7H57V0.1h8.1v1.6h-1c-0.2,0-0.4,0.2-0.2,0.5l2.7,3.6c0,0,0,0,0.1,0l2.8-3.6
	c0.1-0.2,0-0.5-0.2-0.5h-1V0.1H75v1.6h-1.5c-0.5,0-0.8,0.1-1.2,0.6C72.2,2.6,68,7.8,67.9,8c-0.1,0.1-0.1,0.4-0.1,0.4V11
	c0,0.1,0,0.3,0,0.3c0.1,0.2,0.2,0.3,0.3,0.3c0.1,0,0.3,0,0.4,0H70v1.6h-8v-1.6L63.5,11.7L63.5,11.7z"/>
</svg>
